<?xml version="1.0" standalone="no"?>
<!DOCTYPE svg PUBLIC "-//W3C//DTD SVG 20010904//EN"
 "http://www.w3.org/TR/2001/REC-SVG-20010904/DTD/svg10.dtd">
<svg version="1.0" xmlns="http://www.w3.org/2000/svg"
 width="500.000000pt" height="500.000000pt" viewBox="0 0 500.000000 500.000000"
 preserveAspectRatio="xMidYMid meet">
<metadata>
Created by potrace 1.16, written by Peter Selinger 2001-2019
</metadata>
<g transform="translate(0.000000,500.000000) scale(0.100000,-0.100000)"
fill="#000000" stroke="none">
<path d="M1982 3834 c-28 -19 -52 -65 -52 -99 0 -34 24 -80 52 -99 12 -9 43
-16 68 -16 52 0 83 18 105 60 28 53 11 120 -37 154 -12 9 -43 16 -68 16 -25 0
-56 -7 -68 -16z"/>
<path d="M1937 3225 c-87 -35 -161 -66 -164 -68 -2 -3 0 -14 6 -25 9 -17 15
-18 49 -9 72 19 102 -3 117 -87 l7 -36 99 1 99 1 0 144 0 144 -27 -1 c-16 0
-99 -29 -186 -64z"/>
<path d="M1904 2892 c-352 -90 -584 -402 -584 -785 0 -169 34 -300 109 -427
89 -149 218 -254 377 -306 82 -27 100 -29 239 -29 127 0 161 3 220 22 138 44
265 143 361 283 43 64 49 90 20 90 -6 0 -29 -22 -49 -49 -56 -74 -168 -175
-221 -200 -73 -36 -144 -51 -238 -51 -111 0 -175 14 -263 55 -132 63 -231 192
-277 362 -17 65 -21 107 -22 248 -1 179 7 233 50 367 74 226 248 358 474 358
140 0 259 -46 345 -135 52 -53 123 -176 146 -252 9 -31 18 -43 31 -43 17 0 18
7 12 83 -3 45 -11 159 -18 252 -10 162 -12 170 -32 173 -16 2 -23 -4 -28 -23
-9 -37 -50 -75 -81 -75 -14 0 -47 11 -73 24 -102 51 -171 68 -302 72 -98 3
-141 0 -196 -14z"/>
<path d="M2004 2731 c-55 -14 -54 -9 -54 -209 0 -103 -5 -204 -10 -224 -14
-51 -52 -78 -106 -78 -40 0 -44 -2 -44 -25 l0 -25 260 0 260 0 0 24 c0 21 -5
24 -50 28 -59 6 -86 27 -100 77 -5 20 -10 127 -10 239 l0 202 -57 -1 c-32 -1
-72 -4 -89 -8z"/>
<path d="M4463 2472 c-68 -27 -80 -42 -34 -42 35 0 41 -16 41 -118 l0 -73 -32
17 c-49 25 -129 15 -176 -23 -83 -68 -118 -214 -72 -308 31 -63 78 -97 143
-103 44 -3 58 0 90 22 46 32 47 32 47 1 0 -31 5 -31 85 1 67 27 75 38 27 39
-24 0 -28 5 -34 45 -3 25 -7 163 -7 308 -1 144 -4 262 -8 261 -5 0 -36 -12
-70 -27z m-35 -254 c34 -37 42 -73 42 -194 l0 -114 -32 -21 c-57 -35 -127 -9
-163 62 -38 73 -25 205 25 259 36 39 95 42 128 8z"/>
<path d="M3255 2466 c-67 -21 -100 -43 -149 -97 -81 -90 -105 -215 -65 -344
17 -55 31 -78 73 -120 68 -68 128 -89 236 -83 94 5 152 35 205 104 47 63 35
74 -18 17 -50 -55 -106 -83 -167 -83 -154 0 -240 101 -240 284 0 174 64 276
188 299 46 9 120 -9 160 -39 18 -14 45 -50 60 -80 14 -30 29 -54 32 -54 7 0 3
95 -6 168 -6 45 -18 55 -27 22 -6 -25 -27 -25 -97 0 -63 22 -127 24 -185 6z"/>
<path d="M2794 2247 c-60 -26 -71 -41 -29 -42 l30 0 3 -164 c3 -170 -2 -191
-39 -191 -11 0 -19 -4 -19 -10 0 -6 42 -10 105 -10 101 0 137 11 76 23 -18 4
-31 14 -35 29 -3 13 -6 105 -6 206 0 207 5 197 -86 159z"/>
<path d="M3789 2247 c-51 -27 -103 -103 -113 -167 -20 -127 63 -248 178 -258
68 -5 113 9 156 51 94 91 98 260 8 344 -59 56 -156 68 -229 30z m146 -40 c44
-44 69 -129 62 -211 -6 -76 -23 -113 -58 -132 -37 -19 -58 -18 -95 5 -68 41
-105 202 -70 296 32 83 102 101 161 42z"/>
<path d="M4775 2255 c-122 -61 -156 -265 -62 -372 54 -62 133 -80 204 -47 43
21 83 73 83 108 l0 28 -26 -31 c-50 -60 -133 -59 -191 1 -37 38 -53 76 -53
124 l0 34 135 0 135 0 0 49 c0 39 -5 53 -27 76 -16 15 -38 31 -51 36 -36 14
-114 10 -147 -6z m116 -44 c17 -17 29 -40 29 -55 l0 -26 -95 0 c-90 0 -95 1
-95 21 0 12 15 36 34 55 44 44 86 46 127 5z"/>
</g>
</svg>
