<?xml version="1.0" standalone="no"?>
<!DOCTYPE svg PUBLIC "-//W3C//DTD SVG 20010904//EN"
 "http://www.w3.org/TR/2001/REC-SVG-20010904/DTD/svg10.dtd">
<svg version="1.0" xmlns="http://www.w3.org/2000/svg"
 width="500.000000pt" height="500.000000pt" viewBox="0 0 500.000000 500.000000"
 preserveAspectRatio="xMidYMid meet">
<metadata>
Created by potrace 1.16, written by Peter Selinger 2001-2019
</metadata>
<g transform="translate(0.000000,500.000000) scale(0.100000,-0.100000)"
fill="#000000" stroke="none">
<path d="M2429 3931 c-33 -33 -39 -45 -39 -82 0 -123 131 -180 217 -94 32 32
38 54 33 115 -5 55 -62 100 -129 100 -37 0 -49 -6 -82 -39z"/>
<path d="M2398 3292 c-92 -37 -170 -70 -173 -74 -4 -4 -4 -16 0 -27 5 -17 10
-19 31 -11 39 15 90 12 114 -8 24 -19 39 -78 40 -156 0 -39 3 -47 15 -42 9 3
56 11 105 17 l90 12 0 178 0 179 -27 0 c-16 -1 -103 -31 -195 -68z"/>
<path d="M2459 2881 c-91 -20 -222 -82 -304 -143 -306 -227 -415 -719 -240
-1084 95 -197 263 -339 470 -396 112 -30 316 -30 428 0 167 45 303 148 409
307 42 63 45 72 31 85 -13 13 -19 10 -51 -30 -81 -100 -187 -196 -250 -227
-89 -45 -156 -56 -297 -51 -105 5 -129 9 -192 35 -172 72 -267 185 -329 390
-25 81 -27 103 -28 273 -1 204 9 275 56 407 75 209 220 334 420 362 279 39
506 -111 594 -391 13 -43 22 -58 36 -58 22 0 22 2 3 270 -8 113 -15 220 -15
238 0 27 -4 32 -24 32 -17 0 -26 -7 -30 -23 -9 -36 -43 -74 -71 -81 -18 -5
-49 4 -104 28 -162 74 -347 94 -512 57z"/>
<path d="M2550 2704 c-30 -8 -74 -24 -97 -35 l-41 -20 -4 -177 c-3 -154 -6
-181 -22 -209 -24 -38 -35 -44 -101 -52 -42 -5 -51 -10 -53 -28 l-3 -23 285 0
286 0 0 25 c0 23 -4 25 -42 25 -56 0 -87 17 -112 59 -18 31 -21 57 -24 243 -3
114 -7 208 -11 207 -3 0 -31 -7 -61 -15z"/>
</g>
</svg>
